<svg width="24" height="24" viewBox="0 0 24 24" fill="none" xmlns="http://www.w3.org/2000/svg">
<path d="M1.936 1.00001C1.68743 1.00001 1.45 1.09601 1.27429 1.26829C1.09943 1.43972 1 1.67286 1 1.91629C1 2.15972 1.09943 2.39286 1.27429 2.56429C1.44914 2.73572 1.68743 2.83344 1.936 2.83344H2.39629C2.59943 2.83344 2.79657 2.89858 2.95857 3.01858C3.12057 3.13858 3.238 3.30744 3.29371 3.49858L6.26029 13.6729C6.42829 14.2472 6.78229 14.7529 7.26914 15.1129C7.75514 15.472 8.34914 15.6666 8.95771 15.6666H17.5034C18.0633 15.6681 18.611 15.5034 19.0771 15.1934C19.5417 14.8849 19.9017 14.4477 20.11 13.9377L22.8674 7.18001C22.9809 6.90212 23.0231 6.60026 22.9902 6.30191C22.9573 6.00355 22.8502 5.71816 22.6789 5.47172C22.5074 5.22401 22.2769 5.02086 22.0077 4.88029C21.7371 4.73893 21.4362 4.66539 21.1309 4.66601H5.58057L5.092 2.99458C4.92329 2.41712 4.56941 1.91114 4.08486 1.55458C3.59621 1.1931 3.00411 0.998637 2.39629 1.00001H1.936ZM9.418 22.9994C9.78657 22.9994 10.1509 22.9283 10.492 22.7903C10.8311 22.6525 11.1403 22.4502 11.4023 22.1946C11.662 21.9392 11.8694 21.6357 12.0109 21.3023C12.1518 20.9693 12.2245 20.6113 12.2245 20.2497C12.2245 19.8881 12.1518 19.5302 12.0109 19.1972C11.869 18.8626 11.6622 18.5596 11.4023 18.3057C11.1403 18.0498 10.8312 17.8472 10.492 17.7092C9.97933 17.5014 9.41735 17.4471 8.8744 17.5529C8.33145 17.6587 7.83093 17.9199 7.43371 18.3049C7.17424 18.5581 6.96789 18.8605 6.82675 19.1945C6.6856 19.5284 6.6125 19.8872 6.61171 20.2497C6.61171 20.9783 6.90743 21.6786 7.43457 22.1946C7.96 22.7097 8.674 22.9994 9.418 22.9994ZM16.9009 23.0003C17.2686 23.0003 17.6337 22.9292 17.974 22.7912C18.3131 22.6534 18.6223 22.451 18.8843 22.1954C19.1449 21.94 19.3514 21.6366 19.4929 21.3032C19.7064 20.8006 19.7626 20.2451 19.6539 19.71C19.5453 19.1748 19.2769 18.6852 18.8843 18.3057C18.6223 18.0501 18.3131 17.8478 17.974 17.71C17.4613 17.5023 16.8994 17.448 16.3564 17.5538C15.8135 17.6595 15.3129 17.9208 14.9157 18.3057C14.6564 18.559 14.4502 18.8615 14.3092 19.1954C14.1682 19.5294 14.0952 19.8881 14.0946 20.2506C14.0946 20.9792 14.3903 21.6794 14.9157 22.1954C15.442 22.7106 16.156 23.0012 16.9 23.0012" fill="white"/>
</svg>
