<svg preserveAspectRatio="none" width="100%" height="100%" overflow="visible" style="display: block;" viewBox="0 0 18 18" fill="none" xmlns="http://www.w3.org/2000/svg">
<g id="Subtract">
<path d="M14.3933 1.7943C12.8902 0.66751 11.0231 0 9 0C6.97696 0 5.10983 0.667484 3.6068 1.79423L9.00008 7.18751L14.3933 1.7943Z" fill="var(--fill-0, #F3D482)"/>
<path d="M1.7943 3.60672C0.66751 5.10975 0 6.97692 0 9C0 11.0231 0.667509 12.8902 1.7943 14.3933L7.18758 9L1.7943 3.60672Z" fill="var(--fill-0, #F3D482)"/>
<path d="M3.6068 16.2058C5.10982 17.3325 6.97696 18 9 18C11.0231 18 12.8902 17.3325 14.3933 16.2057L9.00008 10.8125L3.6068 16.2058Z" fill="var(--fill-0, #F3D482)"/>
<path d="M16.2058 14.3932C17.3325 12.8902 18 11.023 18 9C18 6.97696 17.3325 5.10983 16.2058 3.6068L10.8126 9L16.2058 14.3932Z" fill="var(--fill-0, #F3D482)"/>
</g>
</svg>
