<svg width="24" height="24" viewBox="0 0 24 24" fill="none" xmlns="http://www.w3.org/2000/svg">
<path d="M17.3933 4.7943C15.8902 3.66751 14.0231 3 12 3C9.97696 3 8.10983 3.66748 6.6068 4.79423L12.0001 10.1875L17.3933 4.7943Z" fill="#F3D482"/>
<path d="M4.7943 6.60672C3.66751 8.10975 3 9.97692 3 12C3 14.0231 3.66751 15.8902 4.7943 17.3933L10.1876 12L4.7943 6.60672Z" fill="#F3D482"/>
<path d="M6.6068 19.2058C8.10982 20.3325 9.97696 21 12 21C14.0231 21 15.8902 20.3325 17.3933 19.2057L12.0001 13.8125L6.6068 19.2058Z" fill="#F3D482"/>
<path d="M19.2058 17.3932C20.3325 15.8902 21 14.023 21 12C21 9.97696 20.3325 8.10983 19.2058 6.6068L13.8126 12L19.2058 17.3932Z" fill="#F3D482"/>
<path fill-rule="evenodd" clip-rule="evenodd" d="M12 24C18.6274 24 24 18.6274 24 12C24 5.37258 18.6274 0 12 0C5.37258 0 0 5.37258 0 12C0 18.6274 5.37258 24 12 24ZM12 22.5C17.799 22.5 22.5 17.799 22.5 12C22.5 6.20101 17.799 1.5 12 1.5C6.20101 1.5 1.5 6.20101 1.5 12C1.5 17.799 6.20101 22.5 12 22.5Z" fill="#717981"/>
</svg>
